<svg xmlns="http://www.w3.org/2000/svg" viewBox="0 0 280.87 216.58">
    <defs>
        <style>
            .cls-1 {
                fill: white;
            }
        </style>
    </defs>
    <title>Asset 2</title>
    <g id="Layer_2" data-name="Layer 2">
        <g id="logo">
            <path class="cls-1"
                d="M113.32,143.39a16.37,16.37,0,0,0-1.16-5.65q-2.86-5.51-2.87-8.56a.52.52,0,0,0,0-.23v-.28q0-4.3,5.74-10.6a3.1,3.1,0,0,0,1.29-2.08v-.23q0-2-2.59-4.63c-2.19-2-4.18-3-6-3a2.92,2.92,0,0,0-1.34.37,49.56,49.56,0,0,0-3.43,3.89,23.28,23.28,0,0,0-3.24,5.18l-20.31,21.8c-1.15,1.16-2,2.06-2.55,2.69-1.5,1.53-2.86,2.88-4.07,4a80.91,80.91,0,0,1-9,7.31h-.09a60.71,60.71,0,0,1,2.4-5.69l14.67-28.78a8.06,8.06,0,0,0,1.3-3.15c0-1-.65-2.34-1.95-4-2.43-2.44-4.64-3.66-6.61-3.66a2.06,2.06,0,0,0-2.08,1.25c-1.64,3.27-2.7,5.33-3.2,6.16a9.65,9.65,0,0,0-3.7-4.86,14.18,14.18,0,0,0-8.47-2.55,17.87,17.87,0,0,0-9.73,3l-5-26.71a.92.92,0,0,1,.33-1,76,76,0,0,0,7.88-8.75,58.61,58.61,0,0,0,8.82-16.41,70.94,70.94,0,0,0,3.64-18.75,86.51,86.51,0,0,0-.35-16.72A53,53,0,0,0,58.08,8.56a19.94,19.94,0,0,0-4.37-6.72A6.55,6.55,0,0,0,46.19.72c-3.29,1.7-5.42,4.57-7.39,7.57a31.21,31.21,0,0,0-2,3.51A60.55,60.55,0,0,0,31,31.55a62,62,0,0,0,0,10.29c.27,3,.59,6,1,9C32.66,56,33.48,61,34.21,66.08a1.09,1.09,0,0,1-.25.8c-1,1-2,2-2.94,2.94-5.35,5.34-10.79,10.61-15.69,16.4a75.52,75.52,0,0,0-11,16.35A43.1,43.1,0,0,0,.18,117.35a50.62,50.62,0,0,0,1,15.08,47.1,47.1,0,0,0,8.43,18.83A36.54,36.54,0,0,0,24.3,162.9,39.65,39.65,0,0,0,37,166a50.67,50.67,0,0,0,13.3-.72l1.23-.24c.51,3.24,1.06,6.38,1.49,9.53.64,4.67,1.23,9.36,1.78,14a35.84,35.84,0,0,1,.15,9.08,15.59,15.59,0,0,1-5.21,9.95,17.18,17.18,0,0,1-13.28,4.22,10.26,10.26,0,0,1-6-2.35A6.18,6.18,0,0,1,28.43,206a13.1,13.1,0,0,0,3.66-1,11,11,0,0,0,4.56-16.5,11.6,11.6,0,0,0-19.85,2,21,21,0,0,0-1.69,8.74,11,11,0,0,0,1.15,4.84,18.79,18.79,0,0,0,7.15,7.67,30.19,30.19,0,0,0,10.17,4.12,25.44,25.44,0,0,0,13.31-.5,17.73,17.73,0,0,0,9.77-7.53,25.73,25.73,0,0,0,3.59-12.58,54.72,54.72,0,0,0-.72-10.46c-.58-4.1-1.2-8.18-1.84-12.27-.46-3-1-5.89-1.49-8.78,1.58-.74,3.14-1.45,4.66-2.21a60.11,60.11,0,0,0,12.57-9.19A91.66,91.66,0,0,0,81,145.24c.59-.58,1-1,1.31-1.37l.82-.85,15.64-16.76h0a27.34,27.34,0,0,0,2.5,7.31,8.62,8.62,0,0,1,1.3,4.59q0,3.6-3,8.09-5,6.39-9.58,6.39a7.8,7.8,0,0,1-3-.74,7.37,7.37,0,0,1,1.2-3.43,12.84,12.84,0,0,1,2.87-3.37,9.6,9.6,0,0,1,5.46-2.27h.56c.3,0,.68,0,1.11,0s.58-.25.74-.74a3.29,3.29,0,0,0-1.34-2.23,4.3,4.3,0,0,0-3.1-1h0a11.92,11.92,0,0,0-8,3.29q-4.12,4.22-4.12,8.6a9.38,9.38,0,0,0,2.22,6,16.13,16.13,0,0,0,12.45,5.56q9.3-.75,14.3-10.92a17.11,17.11,0,0,0,1.9-7.36ZM62,117.75h.28a6.63,6.63,0,0,1,1.15.09,13.7,13.7,0,0,0,2.78.6l.6,0s0,0,0,0q-3.06,6-3.06,6.07-7.35,14.14-9,17.86c-2,2-4,3.82-6.11,5.55q-7.55,6.24-10.83,7.22a7.3,7.3,0,0,1-.23-1.81,31.22,31.22,0,0,1,1.39-7.86,53.92,53.92,0,0,1,2.73-7.5,58.8,58.8,0,0,1,4.72-8.42,56.59,56.59,0,0,1,3.61-4.67Q56.86,117.76,62,117.75ZM36.85,46a56.26,56.26,0,0,1,1.33-8.25,38.64,38.64,0,0,1,4.89-12,16.17,16.17,0,0,1,5.81-5.78c2.76-1.48,5.33-.72,6.71,2a10.5,10.5,0,0,1,.69,1.79,22.81,22.81,0,0,1,.39,8.63c-.73,6.42-3.59,11.95-7.24,17.14a106.74,106.74,0,0,1-11.3,13.19l-.29.24c-.25-2-.53-3.85-.72-5.73-.22-2.18-.45-4.37-.52-6.56A38.57,38.57,0,0,1,36.85,46ZM54.07,159.28a4.43,4.43,0,0,1-1.66.64,4.38,4.38,0,0,1-1,.29h0a3.26,3.26,0,0,1-.6.14v0c-1.71.34-3.32.78-5,.94a52.86,52.86,0,0,1-6.41.26,33.23,33.23,0,0,1-6.11-.89c-7.95-2.09-14.48-6-18.95-12.64a28.58,28.58,0,0,1-4.52-11.51,39.67,39.67,0,0,1,1.51-19.78,36.82,36.82,0,0,1,6.71-11.52A90.39,90.39,0,0,1,29,94.58l8.3-7.08c.13-.11.27-.21.46-.35.81,4.54,3.38,18.81,4.84,26.91a39.28,39.28,0,0,0-4.06,4.43,63,63,0,0,0-6.47,10.41Q27,140.06,27,147.18a1.57,1.57,0,0,1-.05.37,1,1,0,0,1,.05.32v.28a13,13,0,0,0,3,8.79,9.63,9.63,0,0,0,7.08,3.2q3.24,0,8.19-3.29A63.67,63.67,0,0,0,51.82,152h0v.23a8.21,8.21,0,0,0,.37,2.54,9.59,9.59,0,0,0,2.63,4A4.54,4.54,0,0,1,54.07,159.28Z" />
            <path class="cls-1"
                d="M181.62,107a2.35,2.35,0,0,0,1.85-.74Q189.07,95.45,190,93.5a6.38,6.38,0,0,0,1.11-2.59v-.28A6.59,6.59,0,0,0,189.3,87q-3.62-3.89-6.8-3.89a2.45,2.45,0,0,0-1.72.65q-.27.42-6.43,12.58a8.23,8.23,0,0,0-1.25,2.87v.19c0,1.33.91,2.91,2.73,4.76Q179.07,107,181.62,107Z" />
            <path class="cls-1"
                d="M280.83,99.19a8,8,0,0,0-3.2-4,6.18,6.18,0,0,0-3.84-1.25H255.93q1.67-3.24,3.43-6.71a6.64,6.64,0,0,0,1-2.5v-.23c0-1-.61-2.25-1.85-3.8q-3.6-3.74-6.66-3.74h-.05a2.24,2.24,0,0,0-1.8.74q-.8,1.47-7.68,15-.33.6-.6,1.2H221.32a10,10,0,0,0-1,0,1.43,1.43,0,0,0-1.11,1.44,5.27,5.27,0,0,0,1.53,3.19q2.73,2.73,4.95,2.73h12.26q-16.38,32.16-16.84,33.13c-1.47,2.71-2.67,5.14-3.66,7.33l-2.5,2.62q-6.24,6.34-7.4,7h-.05a16.67,16.67,0,0,0,2-7.36v-.69a15.64,15.64,0,0,0-1.21-5.65q-2.86-5.51-2.87-8.56a.41.41,0,0,0,.05-.23v-.28q0-4.3,5.79-10.6a3.1,3.1,0,0,0,1.29-2.08v-.23q0-2-2.59-4.63c-2.19-2-4.18-3-6-3a2.92,2.92,0,0,0-1.34.37,44.78,44.78,0,0,0-3.47,3.89,23.55,23.55,0,0,0-3.2,5.18l-20.31,21.8-.86.87h0q-5.55,5.73-7.77,7.59a73,73,0,0,1-7,5.55l-.09,0c.49-1.32,1-2.6,1.57-3.84q2.37-4.8,14.67-29,2.13-3.94,2.13-4.54,0-2.13-2.4-4.67-3.43-3.19-6.16-3.2a2.27,2.27,0,0,0-1.8.74q-1.35,2.51-13.42,26.33c-1.28,2.36-2.34,4.5-3.24,6.46q-1.12,1.14-3.33,3.45a88.82,88.82,0,0,1-7,6.71h0a16,16,0,0,0,1.85-7v-.69a14.92,14.92,0,0,0-1.16-5.37q-2.69-5.23-2.68-8.1a.53.53,0,0,0,0-.23v-.28q0-4,5.46-10a1.54,1.54,0,0,0,.23-.79v-.23c0-1.26-.8-2.73-2.4-4.39-2.1-1.92-4-2.87-5.69-2.87a2.75,2.75,0,0,0-1.3.37,18.34,18.34,0,0,0-2.27,2.5,21.39,21.39,0,0,0-3.05,5,13.91,13.91,0,0,0-1,8.23h0a24.8,24.8,0,0,0,2.36,6.94,8.36,8.36,0,0,1,1.21,4.35q0,3.44-2.78,7.68-4.73,6.08-9.11,6.07a7.3,7.3,0,0,1-2.87-.7,6.63,6.63,0,0,1,1.2-3.24,11.91,11.91,0,0,1,2.68-3.23,9,9,0,0,1,5.19-2.13h.55c.28,0,.62,0,1,0s.57-.23.69-.69a3,3,0,0,0-1.25-2.08,3.91,3.91,0,0,0-3-1h0a11.26,11.26,0,0,0-7.55,3.15q-3.89,4-3.88,8.14a9.13,9.13,0,0,0,2.08,5.7,15.49,15.49,0,0,0,11.84,5.23,29.73,29.73,0,0,0,6.07-.93,24.68,24.68,0,0,0,4.81-1.76c1.36-.49,3.56-2,6.62-4.53.84-.73,1.91-1.73,3.18-3,0,.15,0,.33,0,.47a9.09,9.09,0,0,0,.33,2.17q2.13,5.7,6.8,5.69,5.46,0,15.18-8.42,2.58-2.17,7.4-7.12a10.16,10.16,0,0,0,.82-.84l.85-.87,15.64-16.76h0a25.54,25.54,0,0,0,2.46,7.31,8.7,8.7,0,0,1,1.29,4.59q0,3.6-2.91,8.09-5,6.39-9.58,6.39a7.89,7.89,0,0,1-3.06-.74,7.21,7.21,0,0,1,1.25-3.43,12.84,12.84,0,0,1,2.87-3.37,9.45,9.45,0,0,1,5.46-2.27h.56c.3,0,.67,0,1.11,0s.58-.25.74-.74a3.29,3.29,0,0,0-1.34-2.23,4.46,4.46,0,0,0-3.15-1h0a12.05,12.05,0,0,0-8,3.29q-4.06,4.22-4.07,8.6a9.5,9.5,0,0,0,2.18,6,16.25,16.25,0,0,0,12.49,5.56,30.31,30.31,0,0,0,6.39-1,26.92,26.92,0,0,0,5.09-1.85c1.42-.53,3.74-2.11,7-4.77.71-.61,1.57-1.41,2.56-2.36a7.66,7.66,0,0,0,.36,2.45c1.42,3.65,3.64,5.46,6.66,5.46q5.32,0,14.53-7.86a94.39,94.39,0,0,0,7.59-7.17c1.14-1.11,1.71-1.78,1.71-2a2.41,2.41,0,0,0-.55-1.44c-1-1.17-1.91-1.76-2.78-1.76h-.28l-.27,0q-3.53,3.66-6,6a78.72,78.72,0,0,1-9.07,7.31h-.09l.32-.88q1.62-4,6.62-13.65,2.08-4.07,19.15-37.53h27.17c.15,0,.24,0,.27,0a1.35,1.35,0,0,0,1.25-1.44A6.29,6.29,0,0,0,280.83,99.19Z" />
        </g>
    </g>
</svg>